<svg width="46" height="46" viewBox="0 0 46 46" fill="none" xmlns="http://www.w3.org/2000/svg">
<rect width="46" height="46" rx="23" fill="#7790ED"/>
<path d="M11.8 31H6.6V17.24H12.22C14.42 17.24 16.0333 17.5467 17.06 18.16C18.0867 18.76 18.6 19.5933 18.6 20.66C18.6 22.0467 17.8733 23 16.42 23.52C18.2867 23.88 19.22 24.98 19.22 26.82C19.22 28.2333 18.5733 29.2867 17.28 29.98C16 30.66 14.1733 31 11.8 31ZM11.06 22.68H12.64C13.1733 22.68 13.6067 22.56 13.94 22.32C14.2733 22.08 14.44 21.76 14.44 21.36C14.44 20.44 13.8133 19.98 12.56 19.98H11.06V22.68ZM12.76 28.18C13.4267 28.18 13.94 28.0467 14.3 27.78C14.66 27.5133 14.84 27.14 14.84 26.66C14.84 26.14 14.66 25.74 14.3 25.46C13.94 25.1667 13.4267 25.02 12.76 25.02H11.04V28.18H12.76ZM22.2787 31.12C21.5454 31.12 20.9854 30.9267 20.5987 30.54C20.2121 30.14 20.0187 29.6533 20.0187 29.08C20.0187 28.4933 20.2254 28.0133 20.6387 27.64C21.0521 27.2533 21.5987 27.06 22.2787 27.06C22.9587 27.06 23.4987 27.26 23.8987 27.66C24.3121 28.06 24.5188 28.5333 24.5188 29.08C24.5188 29.6933 24.3254 30.1867 23.9388 30.56C23.5654 30.9333 23.0121 31.12 22.2787 31.12ZM25.2925 31L29.0925 17.24H35.5725L39.5525 31H34.6525L34.1325 28.36H30.5725L29.9925 31H25.2925ZM30.9925 25.9H33.6525L32.3525 19.88L30.9925 25.9Z" fill="white"/>
</svg>
